<?xml version="1.0" standalone="no"?><!DOCTYPE svg PUBLIC "-//W3C//DTD SVG 1.1//EN" "http://www.w3.org/Graphics/SVG/1.1/DTD/svg11.dtd"><svg class="icon" width="200px" height="200.00px" viewBox="0 0 1024 1024" version="1.1" xmlns="http://www.w3.org/2000/svg"><path fill="#ffffff" d="M923.917 338.046c-22.514-53.227-54.736-101.022-95.774-142.06-41.037-41.038-88.833-73.261-142.06-95.773C630.961 76.898 572.425 65.077 512.1 65.077s-118.862 11.821-173.984 35.136c-53.227 22.513-101.022 54.735-142.06 95.773s-73.261 88.833-95.773 142.06C76.967 393.168 65.146 451.705 65.146 512.03s11.821 118.862 35.136 173.984c22.513 53.227 54.735 101.022 95.773 142.06s88.833 73.261 142.06 95.774c55.122 23.314 113.659 35.136 173.984 35.136s118.861-11.821 173.983-35.136c53.227-22.514 101.022-54.736 142.06-95.774 41.038-41.037 73.261-88.833 95.774-142.06 23.314-55.122 35.136-113.659 35.136-173.984 0.001-60.325-11.821-118.862-35.135-173.984zM512.1 898.983c-213.367 0-386.954-173.587-386.954-386.954S298.733 125.077 512.1 125.077c213.367 0 386.953 173.586 386.953 386.953S725.467 898.983 512.1 898.983z"  /><path fill="#ffffff" d="M512.1 699.965c22.092 0 40-17.908 40-40V235.407c0-22.091-17.908-40-40-40-22.091 0-40 17.909-40 40v424.558c0 22.092 17.908 40 40 40z"  /><path fill="#ffffff" d="M512.099 774.699m-41.466 0a41.466 41.466 0 1 0 82.932 0 41.466 41.466 0 1 0-82.932 0Z"  /></svg>